<?xml version="1.0" encoding="UTF-8"?>
<svg xmlns="http://www.w3.org/2000/svg" xmlns:xlink="http://www.w3.org/1999/xlink" width="854" height="480" viewBox="0 0 854 480">
<defs>
<g>
<g id="glyph-0-0">
<path d="M 0.703125 0 L 0.703125 -0.65625 L 1.890625 -0.65625 L 1.890625 -8.65625 L 0.703125 -8.65625 L 0.703125 -9.3125 L 8.203125 -9.3125 L 8.203125 -7.25 L 7.4375 -7.25 L 7.4375 -8.546875 L 3.15625 -8.546875 L 3.15625 -5.421875 L 6.203125 -5.421875 L 6.203125 -6.59375 L 6.984375 -6.59375 L 6.984375 -3.5 L 6.203125 -3.5 L 6.203125 -4.671875 L 3.15625 -4.671875 L 3.15625 -0.765625 L 7.53125 -0.765625 L 7.53125 -2.078125 L 8.3125 -2.078125 L 8.3125 0 Z "/>
</g>
<g id="glyph-0-1">
<path d="M 0.53125 0 L 0.53125 -0.65625 L 1.5625 -0.65625 L 1.5625 -5.96875 L 0.46875 -5.96875 L 0.46875 -6.640625 L 2.703125 -6.640625 L 2.703125 -5.453125 C 2.921875 -5.898438 3.195312 -6.238281 3.53125 -6.46875 C 3.875 -6.695312 4.269531 -6.8125 4.71875 -6.8125 C 5.445312 -6.8125 5.984375 -6.597656 6.328125 -6.171875 C 6.679688 -5.753906 6.859375 -5.101562 6.859375 -4.21875 L 6.859375 -0.65625 L 7.875 -0.65625 L 7.875 0 L 4.703125 0 L 4.703125 -0.65625 L 5.703125 -0.65625 L 5.703125 -3.859375 C 5.703125 -4.671875 5.597656 -5.226562 5.390625 -5.53125 C 5.191406 -5.832031 4.84375 -5.984375 4.34375 -5.984375 C 3.8125 -5.984375 3.40625 -5.785156 3.125 -5.390625 C 2.84375 -5.003906 2.703125 -4.4375 2.703125 -3.6875 L 2.703125 -0.65625 L 3.703125 -0.65625 L 3.703125 0 Z "/>
</g>
<g id="glyph-0-2">
<path d="M 6.703125 -0.65625 L 7.8125 -0.65625 L 7.8125 0 L 5.5625 0 L 5.5625 -1.03125 C 5.332031 -0.613281 5.046875 -0.304688 4.703125 -0.109375 C 4.359375 0.0859375 3.925781 0.1875 3.40625 0.1875 C 2.59375 0.1875 1.925781 -0.132812 1.40625 -0.78125 C 0.894531 -1.4375 0.640625 -2.28125 0.640625 -3.3125 C 0.640625 -4.351562 0.894531 -5.195312 1.40625 -5.84375 C 1.925781 -6.488281 2.59375 -6.8125 3.40625 -6.8125 C 3.925781 -6.8125 4.359375 -6.710938 4.703125 -6.515625 C 5.046875 -6.316406 5.332031 -6.007812 5.5625 -5.59375 L 5.5625 -9.046875 L 4.46875 -9.046875 L 4.46875 -9.703125 L 6.703125 -9.703125 Z M 5.5625 -2.984375 L 5.5625 -3.640625 C 5.5625 -4.441406 5.40625 -5.050781 5.09375 -5.46875 C 4.789062 -5.882812 4.347656 -6.09375 3.765625 -6.09375 C 3.179688 -6.09375 2.738281 -5.859375 2.4375 -5.390625 C 2.132812 -4.929688 1.984375 -4.238281 1.984375 -3.3125 C 1.984375 -2.40625 2.132812 -1.710938 2.4375 -1.234375 C 2.738281 -0.765625 3.179688 -0.53125 3.765625 -0.53125 C 4.347656 -0.53125 4.789062 -0.738281 5.09375 -1.15625 C 5.40625 -1.582031 5.5625 -2.191406 5.5625 -2.984375 Z "/>
</g>
</g>
</defs>
<g fill="rgb(100%, 100%, 100%)" fill-opacity="1">
<use xlink:href="#glyph-0-0" x="30" y="31.860352"/>
<use xlink:href="#glyph-0-1" x="39" y="31.860352"/>
<use xlink:href="#glyph-0-2" x="47" y="31.860352"/>
</g>
</svg>
